<svg xmlns="http://www.w3.org/2000/svg" width="199.826" height="172.534" viewBox="0 0 199.826 172.534">
  <g id="Group_13213" data-name="Group 13213" transform="translate(-70.087 -126.333)">
    <path id="Path_34987" data-name="Path 34987" d="M118.939,285.25s-16.784-4.515-17.587-19.576,22.621-24.017,21.4-37.317-36.042-28.221-19.14-47.23c20.138-22.648,56.019-13.32,65.561-30.735,15.881-28.985,59.668-31.442,65.076-9.188,10.518,43.275,31.3,34.387,39.636,50.64,4.087,7.972-.439,24.006-24.563,35.917-28.968,14.3,24.327,35.7-1.421,57.489Z" transform="translate(-12.855)" fill="#f3f3e0"/>
    <path id="Path_34988" data-name="Path 34988" d="M136.061,334.977c.2,3.4-.793,7.118-2.282,7.206,0,0-2.511-2.021-3.109-6.889-.416-3.383.9-5.345,2.386-5.432S135.861,331.575,136.061,334.977Z" transform="translate(-26.904 -90.499)" fill="#ff984a"/>
    <path id="Path_34989" data-name="Path 34989" d="M119.572,353.335c3.4-.2,6.977-1.62,6.89-3.109,0,0-2.3-2.257-7.206-2.282-3.408-.017-5.2,1.517-5.116,3S116.169,353.534,119.572,353.335Z" transform="translate(-19.587 -98.541)" fill="#ff984a"/>
    <path id="Path_34990" data-name="Path 34990" d="M153.388,351.69c-.28,3.4-1.786,6.936-3.272,6.813,0,0-2.2-2.354-2.11-7.258.064-3.408,1.64-5.166,3.126-5.043S153.668,348.293,153.388,351.69Z" transform="translate(-34.646 -97.764)" fill="#008fbf"/>
    <path id="Path_34991" data-name="Path 34991" d="M134.693,367.761c3.4.281,7.135-.623,7.258-2.109,0,0-1.96-2.558-6.813-3.272-3.372-.5-5.365.77-5.487,2.256S131.3,367.48,134.693,367.761Z" transform="translate(-26.483 -104.911)" fill="#ff984a"/>
    <path id="Path_34992" data-name="Path 34992" d="M117.291,320.983c.581,3.358.013,7.162-1.456,7.417,0,0-2.722-1.725-3.865-6.5-.794-3.314.29-5.412,1.759-5.666S116.709,317.625,117.291,320.983Z" transform="translate(-18.504 -84.432)" fill="#ff984a"/>
    <path id="Path_34993" data-name="Path 34993" d="M102.889,340.788c3.358-.581,6.75-2.4,6.5-3.865,0,0-2.54-1.984-7.417-1.456-3.388.367-5,2.093-4.745,3.562S99.53,341.37,102.889,340.788Z" transform="translate(-12.054 -92.954)" fill="#ff984a"/>
    <path id="Path_34994" data-name="Path 34994" d="M97.518,309.678c.969,3.268.846,7.112-.584,7.535,0,0-2.9-1.4-4.594-6-1.174-3.2-.342-5.409,1.088-5.833S96.55,306.41,97.518,309.678Z" transform="translate(-9.648 -79.583)" fill="#ff984a"/>
    <path id="Path_34995" data-name="Path 34995" d="M85.521,330.581c3.268-.968,6.426-3.164,6-4.594,0,0-2.753-1.675-7.535-.583-3.323.758-4.723,2.66-4.3,4.089S82.254,331.548,85.521,330.581Z" transform="translate(-4.237 -88.354)" fill="#ff984a"/>
    <path id="Path_34996" data-name="Path 34996" d="M139.6,372.363s-9.811-31.527-47.076-50.115" transform="translate(-9.976 -87.115)" fill="none" stroke="#222230" stroke-miterlimit="10" stroke-width="1"/>
    <path id="Path_34997" data-name="Path 34997" d="M80.317,312.6c3.065,1.491,5.167,5.516,5.167,5.516s-4.464.831-7.529-.66-4.222-3.4-3.57-4.739S77.252,311.105,80.317,312.6Z" transform="translate(-1.833 -82.375)" fill="#ff984a"/>
    <path id="Path_34998" data-name="Path 34998" d="M359.54,334.977c-.2,3.4.793,7.118,2.282,7.206,0,0,2.511-2.021,3.109-6.889.415-3.383-.9-5.345-2.386-5.432S359.739,331.575,359.54,334.977Z" transform="translate(-128.696 -90.499)" fill="#ff984a"/>
    <path id="Path_34999" data-name="Path 34999" d="M370.558,353.335c-3.4-.2-6.977-1.62-6.89-3.109,0,0,2.3-2.257,7.206-2.282,3.408-.017,5.2,1.517,5.116,3S373.961,353.534,370.558,353.335Z" transform="translate(-130.543 -98.541)" fill="#ff984a"/>
    <path id="Path_35000" data-name="Path 35000" d="M342.265,351.69c.28,3.4,1.786,6.936,3.272,6.813,0,0,2.2-2.354,2.11-7.258-.064-3.408-1.64-5.166-3.126-5.043S341.984,348.293,342.265,351.69Z" transform="translate(-121.006 -97.764)" fill="#ff984a"/>
    <path id="Path_35001" data-name="Path 35001" d="M355.453,367.761c-3.4.281-7.135-.623-7.258-2.109,0,0,1.96-2.558,6.813-3.272,3.372-.5,5.365.77,5.487,2.256S358.85,367.48,355.453,367.761Z" transform="translate(-123.663 -104.911)" fill="#ff984a"/>
    <path id="Path_35002" data-name="Path 35002" d="M378.054,320.983c-.581,3.358-.013,7.162,1.456,7.417,0,0,2.723-1.725,3.865-6.5.794-3.314-.289-5.412-1.759-5.666S378.636,317.625,378.054,320.983Z" transform="translate(-136.84 -84.432)" fill="#ff984a"/>
    <path id="Path_35003" data-name="Path 35003" d="M387.341,340.788c-3.358-.581-6.75-2.4-6.5-3.865,0,0,2.54-1.984,7.417-1.456,3.389.367,5,2.093,4.745,3.562S390.7,341.37,387.341,340.788Z" transform="translate(-138.176 -92.954)" fill="#ff984a"/>
    <path id="Path_35004" data-name="Path 35004" d="M397.388,309.678c-.969,3.268-.846,7.112.584,7.535,0,0,2.9-1.4,4.594-6,1.174-3.2.341-5.409-1.089-5.833S398.356,306.41,397.388,309.678Z" transform="translate(-145.258 -79.583)" fill="#ff984a"/>
    <path id="Path_35005" data-name="Path 35005" d="M404.913,330.581c-3.268-.968-6.426-3.164-6-4.594,0,0,2.753-1.675,7.535-.583,3.323.758,4.723,2.66,4.3,4.089S408.181,331.548,404.913,330.581Z" transform="translate(-146.198 -88.354)" fill="#ff984a"/>
    <path id="Path_35006" data-name="Path 35006" d="M322.708,372.762s8.918-31.027,46.184-49.615" transform="translate(-112.33 -87.515)" fill="none" stroke="#222230" stroke-miterlimit="10" stroke-width="1"/>
    <path id="Path_35007" data-name="Path 35007" d="M410.655,312.6c-3.065,1.491-5.167,5.516-5.167,5.516s4.464.831,7.529-.66,4.222-3.4,3.57-4.739S413.72,311.105,410.655,312.6Z" transform="translate(-149.139 -82.375)" fill="#ff984a"/>
    <path id="Path_35008" data-name="Path 35008" d="M137.409,270.517c-.235,3.4-1.692,6.96-3.18,6.857,0,0-2.234-2.324-2.207-7.229.018-3.408,1.569-5.187,3.057-5.085S137.644,267.117,137.409,270.517Z" transform="translate(-27.54 -61.684)" fill="#ff984a"/>
    <path id="Path_35009" data-name="Path 35009" d="M118.9,286.828c3.4.235,7.126-.72,7.229-2.207,0,0-2-2.532-6.857-3.18-3.379-.45-5.354.842-5.456,2.33S115.5,286.593,118.9,286.828Z" transform="translate(-19.444 -68.929)" fill="#ff984a"/>
    <path id="Path_35010" data-name="Path 35010" d="M152.02,288.132c-.515,3.37-2.261,6.8-3.735,6.571,0,0-2.034-2.5-1.6-7.387.3-3.4,1.993-5.04,3.468-4.815S152.535,284.763,152.02,288.132Z" transform="translate(-34.032 -69.432)" fill="#ff984a"/>
    <path id="Path_35011" data-name="Path 35011" d="M132.442,302.919c3.369.515,7.161-.129,7.387-1.6,0,0-1.779-2.688-6.571-3.736-3.33-.728-5.405.4-5.631,1.871S129.072,302.4,132.442,302.919Z" transform="translate(-25.577 -76.045)" fill="#ff984a"/>
    <path id="Path_35012" data-name="Path 35012" d="M166.279,308.923c-.946,3.274-3.121,6.447-4.553,6.033,0,0-1.694-2.742-.634-7.532.736-3.328,2.628-4.74,4.06-4.326S167.226,305.648,166.279,308.923Z" transform="translate(-40.311 -78.569)" fill="#ff984a"/>
    <path id="Path_35013" data-name="Path 35013" d="M145.429,321.064c3.274.946,7.118.8,7.532-.634,0,0-1.417-2.895-6.033-4.553-3.208-1.153-5.411-.305-5.825,1.127S142.155,320.118,145.429,321.064Z" transform="translate(-31.548 -84.042)" fill="#ff984a"/>
    <path id="Path_35014" data-name="Path 35014" d="M178.732,332.667c-1.4,3.107-4.006,5.938-5.365,5.325,0,0-1.287-2.955.443-7.545,1.2-3.19,3.274-4.318,4.634-3.705S180.134,329.56,178.732,332.667Z" transform="translate(-45.72 -89.042)" fill="#ff984a"/>
    <path id="Path_35015" data-name="Path 35015" d="M157.057,341.6c3.107,1.4,6.932,1.8,7.545.443,0,0-.991-3.067-5.325-5.365-3.012-1.6-5.313-1.071-5.926.288S153.949,340.2,157.057,341.6Z" transform="translate(-36.956 -93.095)" fill="#ff984a"/>
    <path id="Path_35016" data-name="Path 35016" d="M187.528,356.682c-1.5,3.061-4.189,5.809-5.529,5.154,0,0-1.193-2.994.679-7.528,1.3-3.15,3.409-4.214,4.748-3.558S189.027,353.621,187.528,356.682Z" transform="translate(-49.596 -99.706)" fill="#ff984a"/>
    <path id="Path_35017" data-name="Path 35017" d="M165.751,364.878c3.061,1.5,6.872,2.018,7.528.679,0,0-.894-3.1-5.154-5.53-2.959-1.69-5.276-1.237-5.932.1S162.689,363.379,165.751,364.878Z" transform="translate(-40.877 -103.428)" fill="#ff984a"/>
    <path id="Path_35018" data-name="Path 35018" d="M162.492,353.566s1.287-36.795-33.029-73.59" transform="translate(-26.402 -68.319)" fill="none" stroke="#222230" stroke-miterlimit="10" stroke-width="1"/>
    <path id="Path_35019" data-name="Path 35019" d="M122.082,265.583c2.011,2.752,1.987,7.293,1.987,7.293s-4.334-1.354-6.346-4.106-2.142-4.978-.939-5.858S120.07,262.832,122.082,265.583Z" transform="translate(-20.422 -60.579)" fill="#ff984a"/>
    <path id="Path_35020" data-name="Path 35020" d="M357.406,270.517c.235,3.4,1.692,6.96,3.179,6.857,0,0,2.234-2.324,2.208-7.229-.018-3.408-1.57-5.187-3.057-5.085S357.172,267.117,357.406,270.517Z" transform="translate(-127.745 -61.684)" fill="#ff984a"/>
    <path id="Path_35021" data-name="Path 35021" d="M370.388,286.828c-3.4.235-7.126-.72-7.229-2.207,0,0,2-2.532,6.857-3.18,3.378-.45,5.353.842,5.456,2.33S373.788,286.593,370.388,286.828Z" transform="translate(-130.317 -68.929)" fill="#ff984a"/>
    <path id="Path_35022" data-name="Path 35022" d="M342.7,288.132c.515,3.37,2.261,6.8,3.736,6.571,0,0,2.034-2.5,1.6-7.387-.3-3.4-1.993-5.04-3.467-4.815S342.181,284.763,342.7,288.132Z" transform="translate(-121.154 -69.432)" fill="#ff984a"/>
    <path id="Path_35023" data-name="Path 35023" d="M356.928,302.919c-3.369.515-7.162-.129-7.387-1.6,0,0,1.779-2.688,6.571-3.736,3.329-.728,5.405.4,5.63,1.871S360.3,302.4,356.928,302.919Z" transform="translate(-124.262 -76.045)" fill="#ff984a"/>
    <path id="Path_35024" data-name="Path 35024" d="M328.084,308.923c.946,3.274,3.122,6.447,4.554,6.033,0,0,1.693-2.742.634-7.532-.736-3.328-2.628-4.74-4.061-4.326S327.139,305.648,328.084,308.923Z" transform="translate(-114.522 -78.569)" fill="#ff984a"/>
    <path id="Path_35025" data-name="Path 35025" d="M344.176,321.064c-3.275.946-7.118.8-7.532-.634,0,0,1.417-2.895,6.033-4.553,3.208-1.153,5.411-.305,5.825,1.127S347.45,320.118,344.176,321.064Z" transform="translate(-118.527 -84.042)" fill="#ff984a"/>
    <path id="Path_35026" data-name="Path 35026" d="M315.035,332.667c1.4,3.107,4.005,5.938,5.365,5.325,0,0,1.287-2.955-.443-7.545-1.2-3.19-3.274-4.318-4.634-3.705S313.633,329.56,315.035,332.667Z" transform="translate(-108.516 -89.042)" fill="#ff984a"/>
    <path id="Path_35027" data-name="Path 35027" d="M332.966,341.6c-3.107,1.4-6.932,1.8-7.545.443,0,0,.991-3.067,5.325-5.365,3.011-1.6,5.313-1.071,5.926.288S336.073,340.2,332.966,341.6Z" transform="translate(-113.537 -93.095)" fill="#008fbf"/>
    <path id="Path_35028" data-name="Path 35028" d="M306.084,356.682c1.5,3.061,4.19,5.809,5.53,5.154,0,0,1.193-2.994-.679-7.528-1.3-3.15-3.409-4.214-4.748-3.558S304.586,353.621,306.084,356.682Z" transform="translate(-104.486 -99.706)" fill="#ff984a"/>
    <path id="Path_35029" data-name="Path 35029" d="M324.386,364.878c-3.061,1.5-6.872,2.018-7.528.679,0,0,.894-3.1,5.154-5.53,2.959-1.69,5.276-1.237,5.932.1S327.447,363.379,324.386,364.878Z" transform="translate(-109.729 -103.428)" fill="#008fbf"/>
    <path id="Path_35030" data-name="Path 35030" d="M310.211,353.566s-1.287-36.795,33.029-73.59" transform="translate(-106.771 -68.319)" fill="none" stroke="#222230" stroke-miterlimit="10" stroke-width="1"/>
    <path id="Path_35031" data-name="Path 35031" d="M370.623,265.583c-2.012,2.752-1.988,7.293-1.988,7.293s4.335-1.354,6.346-4.106,2.142-4.978.939-5.858S372.634,262.832,370.623,265.583Z" transform="translate(-132.752 -60.579)" fill="#ff984a"/>
    <path id="Path_35032" data-name="Path 35032" d="M324.787,361.4c4.013,3.852-10.61,14.307-10.61,14.307H293.971s15.408-49.371,29.407-45.754-8.966,35.834-8.966,35.834S320.781,357.547,324.787,361.4Z" transform="translate(-99.552 -90.457)" fill="#ff692f"/>
    <g id="Group_13202" data-name="Group 13202" transform="translate(199.547 252.805)">
      <path id="Path_35033" data-name="Path 35033" d="M321.563,354.613l-17.514,31.9h-.844l17.719-32.254a.372.372,0,0,1,.5-.147A.365.365,0,0,1,321.563,354.613Z" transform="translate(-303.206 -354.071)" fill="#222230"/>
    </g>
    <g id="Group_13203" data-name="Group 13203" transform="translate(205.798 276.154)">
      <path id="Path_35034" data-name="Path 35034" d="M327,396.772l-11.313,8.438h-1.226l12.1-9.025a.367.367,0,0,1,.514.081A.362.362,0,0,1,327,396.772Z" transform="translate(-314.462 -396.115)" fill="#222230"/>
    </g>
    <path id="Path_35035" data-name="Path 35035" d="M171,375.709h-15.76s-14.549-8.651-11.71-13.317c2.289-3.771,10.125,3.727,10.521,4.109-.624-.814-25.371-33-13.5-36.465,9.773-2.854,17.132,17.925,19.553,25.819-.785-3.4-1.269-8.526,2.883-8.526C169.206,347.329,171,375.709,171,375.709Z" transform="translate(-29.903 -90.459)" fill="#ff692f"/>
    <g id="Group_13204" data-name="Group 13204" transform="translate(117.162 251.743)">
      <path id="Path_35036" data-name="Path 35036" d="M172.483,385.665h-.822L154.9,352.692a.358.358,0,0,1,.162-.491.362.362,0,0,1,.491.161Z" transform="translate(-154.854 -352.158)" fill="#222230"/>
    </g>
    <g id="Group_13205" data-name="Group 13205" transform="translate(133.552 264.129)">
      <path id="Path_35037" data-name="Path 35037" d="M188.916,395.582h-.749l-3.793-20.69a.366.366,0,1,1,.719-.132Z" transform="translate(-184.368 -374.461)" fill="#222230"/>
    </g>
    <g id="Group_13206" data-name="Group 13206" transform="translate(135.805 169.846)">
      <rect id="Rectangle_3339" data-name="Rectangle 3339" width="67.92" height="115.401" rx="4.286" transform="translate(0)" fill="#fff"/>
      <rect id="Rectangle_3340" data-name="Rectangle 3340" width="61.631" height="97.333" transform="translate(3.146 6.448)" fill="#222230"/>
      <path id="Path_35038" data-name="Path 35038" d="M255.721,229.443v38.395L199.35,319.476H194.09V285.9Z" transform="translate(-190.944 -215.695)" fill="#424c4c"/>
      <circle id="Ellipse_289" data-name="Ellipse 289" cx="4.108" cy="4.108" r="4.108" transform="translate(29.537 105.483)" fill="#ff692f"/>
      <rect id="Rectangle_3341" data-name="Rectangle 3341" width="15.722" height="2.358" rx="1.179" transform="translate(26.099 2.024)" fill="#ff692f"/>
    </g>
    <g id="Group_13207" data-name="Group 13207" transform="translate(70.087 284.008)">
      <rect id="Rectangle_3342" data-name="Rectangle 3342" width="199.826" height="4.246" rx="2.123" transform="translate(0 0)" fill="#ff692f"/>
      <rect id="Rectangle_3343" data-name="Rectangle 3343" width="73.024" height="4.246" rx="2.123" transform="translate(99.3 4.246)" fill="#ff692f"/>
      <rect id="Rectangle_3344" data-name="Rectangle 3344" width="25.442" height="4.246" rx="2.123" transform="translate(74.848 10.614)" fill="#ff692f"/>
      <rect id="Rectangle_3345" data-name="Rectangle 3345" width="16.188" height="4.246" rx="2.123" transform="translate(32.967 6.368)" fill="#ff692f"/>
    </g>
    <path id="Path_35039" data-name="Path 35039" d="M229.63,308.266V333.7a1.734,1.734,0,0,1-1.732,1.732h-6.786l1.6,4.4-13.17-4.4H188.595a1.734,1.734,0,0,1-1.732-1.732v-25.43a1.735,1.735,0,0,1,1.732-1.732h39.3A1.735,1.735,0,0,1,229.63,308.266Z" transform="translate(-51.926 -80.128)" fill="#fff"/>
    <g id="Group_13208" data-name="Group 13208" transform="translate(141.583 232.538)">
      <rect id="Rectangle_3346" data-name="Rectangle 3346" width="29.479" height="16.626" rx="1.607" transform="translate(0 0)" fill="#ff984a"/>
      <path id="Path_35040" data-name="Path 35040" d="M228.313,337.835l-14.74-8.254-14.74,8.254,14.74-9.436Z" transform="translate(-198.831 -322.389)" fill="#ff7900"/>
      <path id="Path_35041" data-name="Path 35041" d="M213.569,328.189l-14.739-9.433a1.179,1.179,0,0,1,1.179-1.18H227.13a1.179,1.179,0,0,1,1.179,1.18Z" transform="translate(-198.83 -317.576)" fill="#ff692f"/>
    </g>
    <g id="Group_13209" data-name="Group 13209" transform="translate(96.243 141.268)">
      <rect id="Rectangle_3347" data-name="Rectangle 3347" width="35.622" height="20.091" rx="1.607" transform="matrix(0.79, -0.613, 0.613, 0.79, 0, 21.835)" fill="#ff984a"/>
      <path id="Path_35042" data-name="Path 35042" d="M165.936,179.778l-20.187,3.037-7.959,18.8,7.084-19.926Z" transform="translate(-126.348 -165.033)" fill="#ff7900"/>
      <path id="Path_35043" data-name="Path 35043" d="M139.579,174.736l-21.06,1.911a1.425,1.425,0,0,1,.253-2l25.893-20.088a1.425,1.425,0,0,1,2,.252Z" transform="translate(-117.646 -153.687)" fill="#ff692f"/>
    </g>
    <g id="Group_13210" data-name="Group 13210" transform="translate(207.595 144.652)">
      <rect id="Rectangle_3348" data-name="Rectangle 3348" width="35.622" height="20.091" rx="1.607" transform="translate(5.98 0) rotate(17.317)" fill="#ff984a"/>
      <path id="Path_35044" data-name="Path 35044" d="M352.472,197.538l-14.035-14.824-19.973,4.22,20.4-5.583Z" transform="translate(-318.038 -169.116)" fill="#ff7900"/>
      <path id="Path_35045" data-name="Path 35045" d="M341.311,177.15,327.7,160.967a1.425,1.425,0,0,1,1.784-.936l31.286,9.755a1.424,1.424,0,0,1,.936,1.784Z" transform="translate(-322.145 -159.607)" fill="#ff692f"/>
    </g>
    <g id="Group_13211" data-name="Group 13211" transform="translate(154.074 126.85)">
      <rect id="Rectangle_3349" data-name="Rectangle 3349" width="29.13" height="16.429" rx="1.607" transform="translate(0 2.526) rotate(-4.974)" fill="#ff984a"/>
      <path id="Path_35046" data-name="Path 35046" d="M252.729,148.218l-15.218-6.863-13.8,9.389,13.7-10.552Z" transform="translate(-222.382 -133.013)" fill="#ff7900"/>
      <path id="Path_35047" data-name="Path 35047" d="M236.818,139.051,221.5,131.028a1.166,1.166,0,0,1,1.06-1.262l26.7-2.324a1.165,1.165,0,0,1,1.262,1.06Z" transform="translate(-221.399 -127.341)" fill="#ff692f"/>
    </g>
    <path id="Path_35048" data-name="Path 35048" d="M280.377,232.113v25.43a1.73,1.73,0,0,1-1.732,1.732H257.7l-13.17,4.4,1.607-4.4h-6.794a1.735,1.735,0,0,1-1.732-1.732l.008-25.43a1.729,1.729,0,0,1,1.724-1.732h39.3A1.73,1.73,0,0,1,280.377,232.113Z" transform="translate(-74.49 -46.266)" fill="#fff"/>
    <g id="Group_13212" data-name="Group 13212" transform="translate(169.765 181.834)">
      <path id="Rectangle_3350" data-name="Rectangle 3350" d="M0,0H29.479a0,0,0,0,1,0,0V15.019a1.607,1.607,0,0,1-1.607,1.607H1.607A1.607,1.607,0,0,1,0,15.019V0A0,0,0,0,1,0,0Z" transform="translate(0 10.613)" fill="#ff984a"/>
      <path id="Path_35049" data-name="Path 35049" d="M293.141,267.49l-11.893-6.662.748-.47Z" transform="translate(-263.66 -241.429)" fill="#ff7900"/>
      <path id="Path_35050" data-name="Path 35050" d="M261.473,260.828l-11.893,6.662,11.145-7.132Z" transform="translate(-249.578 -241.429)" fill="#ff7900"/>
      <path id="Path_35051" data-name="Path 35051" d="M279.06,245.39v1.174l-2.436,1.563-8.709,5.576-.748.47L264.319,256l-2.847-1.827-.748-.47-8.709-5.576-2.436-1.563V245.39Z" transform="translate(-249.578 -234.773)" fill="#ffbc00"/>
      <path id="Path_35052" data-name="Path 35052" d="M279.06,235.708v1.181h-29.48v-1.181l14.74-9.435Z" transform="translate(-249.578 -226.272)" fill="#ff692f"/>
      <path id="Path_35053" data-name="Path 35053" d="M278.574,235.124v8.438l-4.688,3-1.1.7-2.92,1.871-.748.47-2.847,1.827-2.847-1.827-.748-.47-2.92-1.871-1.1-.7-4.688-3v-8.438Z" transform="translate(-251.529 -230.208)" fill="#fff"/>
      <rect id="Rectangle_3351" data-name="Rectangle 3351" width="17.923" height="0.708" transform="translate(5.778 8.097)" fill="#222230"/>
      <rect id="Rectangle_3352" data-name="Rectangle 3352" width="17.923" height="0.708" transform="translate(5.778 10.849)" fill="#222230"/>
      <rect id="Rectangle_3353" data-name="Rectangle 3353" width="17.923" height="0.708" transform="translate(5.778 13.6)" fill="#222230"/>
      <path id="Path_35054" data-name="Path 35054" d="M277.64,255.721l-1.1.7H263.509l-1.1-.7Z" transform="translate(-255.283 -239.367)" fill="#222230"/>
    </g>
    <path id="Path_35055" data-name="Path 35055" d="M252.481,315.312a2.827,2.827,0,1,1-2.827-2.827A2.827,2.827,0,0,1,252.481,315.312Z" transform="translate(-78.589 -82.774)" fill="#e42e45"/>
  </g>
</svg>
