<svg xmlns="http://www.w3.org/2000/svg" width="27.708" height="27.703" viewBox="0 0 27.708 27.703">
  <g id="Group_13216" data-name="Group 13216" transform="translate(-704.133 -194.091)">
    <g id="_1943_Bill_Cash_Payment_Receipt" data-name="1943, Bill, Cash, Payment, Receipt" transform="translate(704.133 194.091)">
      <g id="Group_13215" data-name="Group 13215">
        <path id="Path_35056" data-name="Path 35056" d="M731.293,240.368h-2.9a.6.6,0,0,0-.589.589v2.309h-19.6v-2.309a.6.6,0,0,0-.589-.589h-2.9a.6.6,0,0,0-.588.589v5.749a.6.6,0,0,0,.588.589h26.526a.6.6,0,0,0,.589-.589v-5.749A.535.535,0,0,0,731.293,240.368Zm-.589,5.749H705.355V241.5h1.72v2.309a.6.6,0,0,0,.589.588h20.777a.6.6,0,0,0,.589-.588V241.5h1.72l-.045,4.617Z" transform="translate(-704.133 -219.591)" fill="#e76936"/>
        <path id="Path_35057" data-name="Path 35057" d="M708.653,212.559a.6.6,0,0,0,.589-.589V195.222H731.15v16.748a.589.589,0,0,0,1.177,0V194.68a.6.6,0,0,0-.588-.589H708.653a.6.6,0,0,0-.589.589v17.291A.6.6,0,0,0,708.653,212.559Z" transform="translate(-706.299 -194.091)" fill="#272733"/>
        <path id="Path_35058" data-name="Path 35058" d="M728.5,201.854H716.417a.589.589,0,1,0,0,1.177h12.131a.6.6,0,0,0,.589-.589A.638.638,0,0,0,728.5,201.854Z" transform="translate(-710.577 -198.369)" fill="#272733"/>
        <path id="Path_35059" data-name="Path 35059" d="M728.5,209.517H716.417a.588.588,0,1,0,0,1.177h12.131a.6.6,0,0,0,.589-.588A.676.676,0,0,0,728.5,209.517Z" transform="translate(-710.577 -202.591)" fill="#272733"/>
        <path id="Path_35060" data-name="Path 35060" d="M728.5,217.28H716.417a.588.588,0,1,0,0,1.177h12.131a.6.6,0,0,0,.589-.588A.638.638,0,0,0,728.5,217.28Z" transform="translate(-710.577 -206.869)" fill="#272733"/>
        <path id="Path_35061" data-name="Path 35061" d="M728.5,224.942H716.417a.589.589,0,1,0,0,1.177h12.131a.6.6,0,0,0,.589-.589A.676.676,0,0,0,728.5,224.942Z" transform="translate(-710.577 -211.091)" fill="#272733"/>
        <path id="Path_35062" data-name="Path 35062" d="M750.92,201.854h-1.131a.589.589,0,0,0,0,1.177h1.131a.6.6,0,0,0,.589-.589A.571.571,0,0,0,750.92,201.854Z" transform="translate(-728.966 -198.369)" fill="#272733"/>
        <path id="Path_35063" data-name="Path 35063" d="M750.92,209.517h-1.131a.588.588,0,1,0,0,1.177h1.131a.588.588,0,1,0,0-1.177Z" transform="translate(-728.966 -202.591)" fill="#272733"/>
        <path id="Path_35064" data-name="Path 35064" d="M750.92,217.28h-1.131a.588.588,0,1,0,0,1.177h1.131a.6.6,0,0,0,.589-.588A.571.571,0,0,0,750.92,217.28Z" transform="translate(-728.966 -206.869)" fill="#272733"/>
        <path id="Path_35065" data-name="Path 35065" d="M750.92,224.942h-1.131a.589.589,0,0,0,0,1.177h1.131a.589.589,0,0,0,0-1.177Z" transform="translate(-728.966 -211.091)" fill="#272733"/>
      </g>
    </g>
  </g>
</svg>
