<svg xmlns="http://www.w3.org/2000/svg" width="22.316" height="24.734" viewBox="0 0 22.316 24.734">
  <g id="Interface_Settings_Future" data-name="Interface / Settings_Future" transform="translate(-2.34 -1.309)">
    <g id="Vector" transform="translate(3.34 2.31)">
      <path id="Path_351" data-name="Path 351" d="M15.375,24.322l6.4-3.7a5.18,5.18,0,0,0,1.273-.868,2.346,2.346,0,0,0,.488-.845,5.17,5.17,0,0,0,.115-1.532V9.973a5.169,5.169,0,0,0-.115-1.532,2.346,2.346,0,0,0-.488-.845,5.152,5.152,0,0,0-1.266-.863l-6.414-3.7a5.183,5.183,0,0,0-1.388-.669,2.346,2.346,0,0,0-.976,0,5.186,5.186,0,0,0-1.389.669l-6.406,3.7A5.18,5.18,0,0,0,3.942,7.6a2.346,2.346,0,0,0-.488.845A5.191,5.191,0,0,0,3.34,9.978v7.4a5.19,5.19,0,0,0,.115,1.538,2.346,2.346,0,0,0,.488.845,5.185,5.185,0,0,0,1.274.868l6.4,3.7a5.189,5.189,0,0,0,1.389.669,2.349,2.349,0,0,0,.976,0A5.189,5.189,0,0,0,15.375,24.322Z" transform="translate(-3.34 -2.31)" fill="none" stroke="#e76936" stroke-linecap="round" stroke-linejoin="round" stroke-width="2"/>
      <path id="Path_352" data-name="Path 352" d="M9,12.519A3.519,3.519,0,1,0,12.519,9,3.519,3.519,0,0,0,9,12.519Z" transform="translate(-2.361 -1.152)" fill="none" stroke="#272733" stroke-linecap="round" stroke-linejoin="round" stroke-width="2"/>
    </g>
  </g>
</svg>
