<svg xmlns="http://www.w3.org/2000/svg" width="37.988" height="37.99" viewBox="0 0 37.988 37.99">
  <g id="Interface_Tag" data-name="Interface / Tag" transform="translate(-3.381 -3.382)">
    <g id="Vector" transform="translate(4.364 4.365)">
      <path id="Path_41793" data-name="Path 41793" d="M5.224,11.718l-.742,8.167a9.561,9.561,0,0,0-.065,2.4,4.484,4.484,0,0,0,.532,1.47,9.632,9.632,0,0,0,1.595,1.812l11.6,11.6c1.764,1.764,2.647,2.647,3.667,2.978a4.487,4.487,0,0,0,2.772,0c1.024-.332,1.913-1.221,3.689-3l8.876-8.876c1.776-1.776,2.662-2.663,2.994-3.687a4.485,4.485,0,0,0,0-2.771c-.333-1.024-1.217-1.911-2.993-3.686L25.576,6.556A9.69,9.69,0,0,0,23.753,4.95a4.485,4.485,0,0,0-1.47-.532,9.692,9.692,0,0,0-2.429.066l-8.137.74c-2.118.193-3.177.289-4.006.75A4.483,4.483,0,0,0,5.972,7.713c-.459.825-.554,1.877-.745,3.973Z" transform="translate(-4.364 -4.365)" fill="none" stroke="#e76936" stroke-linecap="round" stroke-linejoin="round" stroke-width="2"/>
      <path id="Path_41794" data-name="Path 41794" d="M11.833,11.833a2.242,2.242,0,1,0-3.172,0A2.242,2.242,0,0,0,11.833,11.833Z" transform="translate(0.156 0.156)" fill="none" stroke="#272733" stroke-linecap="round" stroke-linejoin="round" stroke-width="2"/>
    </g>
  </g>
</svg>
