<svg xmlns="http://www.w3.org/2000/svg" width="18.877" height="27.377" viewBox="0 0 18.877 27.377">
  <g id="Group_13176" data-name="Group 13176" transform="translate(-56 -665)">
    <path id="Path_34956" data-name="Path 34956" d="M74.527,3854.344H58.684v24.411H74.527Z" transform="translate(0 -3189)" fill="#e76936"/>
    <g id="Group_13175" data-name="Group 13175" transform="translate(-1053.8 148.6)">
      <path id="Path_34942" data-name="Path 34942" d="M1128.365,516.4h-15.957a.336.336,0,0,0-.312.313v1.982h-1.982a.337.337,0,0,0-.313.313v24.457a.336.336,0,0,0,.313.313h15.957a.336.336,0,0,0,.313-.313v-1.982h1.981a.336.336,0,0,0,.313-.313v-24.4A.349.349,0,0,0,1128.365,516.4Zm-2.607,26.752h-15.331V519.373h1.617v21.849a.337.337,0,0,0,.313.313h13.35v1.617Zm2.295-2.3H1112.72V517.078h15.332Z" transform="translate(0)" fill="#272733"/>
      <path id="Path_34944" data-name="Path 34944" d="M1118.213,525.826h5.893a.313.313,0,0,0,0-.625h-5.893a.336.336,0,0,0-.313.312A.3.3,0,0,0,1118.213,525.826Z" transform="translate(-3.876 -4.212)" fill="#272733"/>
      <path id="Path_34945" data-name="Path 34945" d="M1118.213,529.026h12.047a.313.313,0,0,0,0-.626h-12.047a.313.313,0,0,0,0,.626Z" transform="translate(-3.876 -5.742)" fill="#272733"/>
      <path id="Path_34946" data-name="Path 34946" d="M1118.213,532.127h12.047a.313.313,0,0,0,0-.626h-12.047a.313.313,0,0,0,0,.626Z" transform="translate(-3.876 -7.226)" fill="#272733"/>
      <path id="Path_34947" data-name="Path 34947" d="M1118.213,535.226h12.047a.313.313,0,0,0,0-.625h-12.047a.313.313,0,1,0,0,.625Z" transform="translate(-3.876 -8.71)" fill="#272733"/>
      <path id="Path_34948" data-name="Path 34948" d="M1118.213,538.326h12.047a.313.313,0,0,0,0-.625h-12.047a.337.337,0,0,0-.313.312A.3.3,0,0,0,1118.213,538.326Z" transform="translate(-3.876 -10.193)" fill="#272733"/>
      <path id="Path_34949" data-name="Path 34949" d="M1118.213,541.526h12.047a.313.313,0,0,0,0-.626h-12.047a.313.313,0,0,0,0,.626Z" transform="translate(-3.876 -11.724)" fill="#272733"/>
      <path id="Path_34950" data-name="Path 34950" d="M1118.213,544.627h12.047a.313.313,0,0,0,0-.626h-12.047a.313.313,0,0,0,0,.626Z" transform="translate(-3.876 -13.208)" fill="#272733"/>
      <path id="Path_34951" data-name="Path 34951" d="M1118.213,547.726h12.047a.313.313,0,0,0,0-.625h-12.047a.313.313,0,1,0,0,.625Z" transform="translate(-3.876 -14.691)" fill="#272733"/>
      <path id="Path_34952" data-name="Path 34952" d="M1118.213,550.826h12.047a.313.313,0,0,0,0-.625h-12.047a.313.313,0,1,0,0,.625Z" transform="translate(-3.876 -16.175)" fill="#272733"/>
      <path id="Path_34953" data-name="Path 34953" d="M1118.213,554.026h12.047a.313.313,0,0,0,0-.626h-12.047a.313.313,0,0,0,0,.626Z" transform="translate(-3.876 -17.706)" fill="#272733"/>
      <path id="Path_34954" data-name="Path 34954" d="M1118.213,557.126h12.047a.313.313,0,0,0,0-.626h-12.047a.313.313,0,0,0,0,.626Z" transform="translate(-3.876 -19.189)" fill="#272733"/>
      <path id="Path_34955" data-name="Path 34955" d="M1118.213,560.226h12.047a.313.313,0,0,0,0-.625h-12.047a.313.313,0,1,0,0,.625Z" transform="translate(-3.876 -20.673)" fill="#272733"/>
    </g>
  </g>
</svg>
