<svg xmlns="http://www.w3.org/2000/svg" width="24.641" height="26.394" viewBox="0 0 24.641 26.394">
  <g id="Group_13172" data-name="Group 13172" transform="translate(-66 -525.303)">
    <path id="Path_34941" data-name="Path 34941" d="M87.279,3718.091H69.326v2h.743l.614.387.387.387v1.195l-.387.291-.614.226h-.743v8.46h1.1l.42.549.226.549v.614l-.226.42-.42.291-1.1.161v1.97H87.279Z" transform="translate(0 -3189)" fill="#e76936"/>
    <g id="Group_13171" data-name="Group 13171">
      <g id="Group_13170" data-name="Group 13170" transform="translate(-955.701 17.403)">
        <path id="Path_34939" data-name="Path 34939" d="M1040.5,531.59a4.426,4.426,0,0,0,4.445-4.444,4.187,4.187,0,0,0-1.318-3.128,4.437,4.437,0,0,0-6.31,0h0a4.5,4.5,0,0,0-1.317,3.128A4.546,4.546,0,0,0,1040.5,531.59Zm-2.908-6.859,1.262,1.262a1.856,1.856,0,0,0-.329.823h-1.811A3.787,3.787,0,0,1,1037.591,524.73Zm6.64,2.031h-1.811a2.582,2.582,0,0,0-.329-.823l1.262-1.262A3.382,3.382,0,0,1,1044.231,526.761Zm-.823,2.744-1.262-1.262a1.871,1.871,0,0,0,.33-.823h1.755A3.383,3.383,0,0,1,1043.408,529.505Zm-3.841-3.292a1.319,1.319,0,0,1,1.866,1.865,1.432,1.432,0,0,1-.933.384,1.319,1.319,0,0,1-.933-2.249Zm-.219,2.524a1.861,1.861,0,0,0,.823.33v1.811a3.734,3.734,0,0,1-2.086-.879Zm1.482.33a2.6,2.6,0,0,0,.823-.33l1.262,1.262a4.171,4.171,0,0,1-2.085.879Zm.823-3.567a1.864,1.864,0,0,0-.823-.33v-1.811a3.737,3.737,0,0,1,2.085.878Zm-1.482-.33a2.587,2.587,0,0,0-.823.33l-1.262-1.263a4.17,4.17,0,0,1,2.086-.878Zm-1.646,2.3a2.57,2.57,0,0,0,.329.823l-1.262,1.262a4.157,4.157,0,0,1-.878-2.085Z" transform="translate(-6.453 -6.679)" fill="#272733"/>
        <path id="Path_34940" data-name="Path 34940" d="M1044.034,507.9H1024.06a2.342,2.342,0,0,0-2.359,2.36v19.975a2.342,2.342,0,0,0,2.359,2.359h.713v1.372a.354.354,0,0,0,.329.329h6.53a.354.354,0,0,0,.329-.329v-1.372h4.445v1.372a.355.355,0,0,0,.33.329h6.529a.354.354,0,0,0,.33-.329v-1.372h.384a2.342,2.342,0,0,0,2.359-2.359V510.315A2.31,2.31,0,0,0,1044.034,507.9Zm-1.426,17.176h-2.415a.329.329,0,0,0,0,.659h2.415v1.043h-8.89a.329.329,0,1,0,0,.658h8.944v1.372h-17.175v-1.372h.164a1.536,1.536,0,1,0,0-3.073h-.164V522.99h2.085a.329.329,0,0,0,0-.659h-2.085v-3.457h1.042a.329.329,0,1,0,0-.659h-1.042v-1.7h.164a1.537,1.537,0,1,0,0-3.073h-.164V512.07h17.175v13.005Zm-17.834-.713h-2.415v-7.846h2.415Zm-2.415.713h3.238a.878.878,0,0,1,0,1.756h-3.238Zm3.292-10.975a.878.878,0,0,1,0,1.756h-3.238V514.1Zm5.653,19.536h-5.817v-1.043h5.817Zm11.633,0h-5.816v-1.043h5.816Zm2.744-3.4a1.709,1.709,0,0,1-1.7,1.7h-19.975a1.71,1.71,0,0,1-1.7-1.7v-2.8h2.415v1.7a.353.353,0,0,0,.329.329h17.834a.354.354,0,0,0,.329-.329V511.631a.353.353,0,0,0-.329-.329H1025.1a.354.354,0,0,0-.329.329v1.811h-2.415v-3.237a1.71,1.71,0,0,1,1.7-1.7h19.974a1.709,1.709,0,0,1,1.7,1.7v20.029Z" transform="translate(0 0)" fill="#272733"/>
      </g>
    </g>
  </g>
</svg>
