<svg xmlns="http://www.w3.org/2000/svg" width="33.204" height="30.938" viewBox="0 0 33.204 30.938"><g transform="translate(322.697 -404.5)"><g transform="translate(-322.697 404.5)"><path d="M-290.266,404.5h-31.712a.72.72,0,0,0-.718.655v19.115a.727.727,0,0,0,.718.71h31.768a.727.727,0,0,0,.718-.71V405.155A.824.824,0,0,0-290.266,404.5Zm-4.752,19.115h-22.21a4.777,4.777,0,0,0-4.088-4.042v-9.667a4.777,4.777,0,0,0,4.088-4.042h22.21a4.837,4.837,0,0,0,4.089,4.042v9.667A4.778,4.778,0,0,0-295.018,423.615Zm4.089-15.074a3.473,3.473,0,0,1-2.707-2.676h2.707Zm-27.679-2.676a3.473,3.473,0,0,1-2.707,2.676v-2.676Zm-2.707,15.074a3.474,3.474,0,0,1,2.707,2.676h-2.707Zm27.679,2.676a3.473,3.473,0,0,1,2.707-2.676v2.676Z" transform="translate(322.697 -404.5)" fill="#e76936"/><path d="M-296.344,410.8a4.227,4.227,0,0,0-3.481,2.13,9.079,9.079,0,0,0,0,9.448,4.3,4.3,0,0,0,3.481,2.13,4.226,4.226,0,0,0,3.481-2.13,9.079,9.079,0,0,0,0-9.448A4.1,4.1,0,0,0-296.344,410.8Zm2.376,10.759c-1.326,2.021-3.37,1.966-4.7,0a7.686,7.686,0,0,1,0-7.919c1.326-2.021,3.37-1.966,4.7,0A7.815,7.815,0,0,1-293.968,421.559Z" transform="translate(312.918 -407.359)" fill="#272733"/><path d="M-290.266,447h-31.712a.727.727,0,0,0-.718.71.682.682,0,0,0,.718.655h31.768a.72.72,0,0,0,.718-.655A.821.821,0,0,0-290.266,447Z" transform="translate(322.697 -425.142)" fill="#e76936"/><path d="M-290.266,454.5h-31.712a.72.72,0,0,0-.718.655.727.727,0,0,0,.718.71h31.768a.727.727,0,0,0,.718-.71A.733.733,0,0,0-290.266,454.5Z" transform="translate(322.697 -429.023)" fill="#e76936"/><path d="M-290.266,462h-31.712a.727.727,0,0,0-.718.71.682.682,0,0,0,.718.655h31.768a.72.72,0,0,0,.718-.655A.824.824,0,0,0-290.266,462Z" transform="translate(322.697 -432.427)" fill="#e76936"/><path d="M-313.231,418.3a3.071,3.071,0,0,0-3.093,3.058,3.071,3.071,0,0,0,3.093,3.058,3.071,3.071,0,0,0,3.094-3.058A3.071,3.071,0,0,0-313.231,418.3Zm0,4.752a1.711,1.711,0,0,1-1.712-1.693,1.711,1.711,0,0,1,1.712-1.693,1.712,1.712,0,0,1,1.713,1.693A1.712,1.712,0,0,1-313.231,423.052Z" transform="translate(319.805 -411.281)" fill="#272733"/><path d="M-276.611,418.3a3.071,3.071,0,0,0-3.094,3.058,3.071,3.071,0,0,0,3.094,3.058,3.071,3.071,0,0,0,3.094-3.058A3.071,3.071,0,0,0-276.611,418.3Zm0,4.752a1.711,1.711,0,0,1-1.713-1.693,1.711,1.711,0,0,1,1.713-1.693,1.711,1.711,0,0,1,1.713,1.693A1.711,1.711,0,0,1-276.611,423.052Z" transform="translate(303.185 -411.281)" fill="#272733"/></g></g></svg>