<svg xmlns="http://www.w3.org/2000/svg" width="36.414" height="30.757" viewBox="0 0 36.414 30.757"><g transform="translate(-56.131 -340.804)"><path d="M28.23,33.26c0-2.277-2.1-4.251-5.467-5.311a13.99,13.99,0,0,0-4.036-.554,15.033,15.033,0,0,0-4.27.624c-2.966.839-5.234,2.877-5.234,5.241m9.5-11.73a5.785,5.785,0,0,1-5.7-5.865,5.7,5.7,0,1,1,11.4,0A5.785,5.785,0,0,1,18.726,21.53Z" transform="translate(55.381 337.551)" fill="none" stroke="#272733" stroke-linecap="round" stroke-linejoin="round" stroke-width="1.5"/><g transform="translate(57 341.565)"><g transform="translate(20.772)"><path d="M81.309,343.106s5.224-3.466,8.282,0,.815,8.326-.476,8.869" transform="translate(-81.309 -341.565)" fill="none" stroke="#e76936" stroke-linecap="round" stroke-width="1.5"/><path d="M87.438,356.25s5.5.764,6.415,5.957" transform="translate(-79.949 -338.307)" fill="none" stroke="#e76936" stroke-linecap="round" stroke-width="1.5"/></g><g transform="translate(0)"><path d="M91.125,343.106s-5.224-3.466-8.282,0-.815,8.326.476,8.869" transform="translate(-77.222 -341.565)" fill="none" stroke="#e76936" stroke-linecap="round" stroke-width="1.5"/><path d="M93.852,356.25s-5.5.764-6.415,5.957" transform="translate(-87.438 -338.307)" fill="none" stroke="#e76936" stroke-linecap="round" stroke-width="1.5"/></g></g></g></svg>