<svg xmlns="http://www.w3.org/2000/svg" width="26.506" height="31.267" viewBox="0 0 26.506 31.267"><g transform="translate(-5.25 -2.245)"><path d="M19.286,3c-.171,0-.362,0-.582,0h-7.99c-2,0-3,0-3.765.36a3.449,3.449,0,0,0-1.56,1.445C5,5.513,5,6.439,5,8.291v19.18c0,1.852,0,2.778.389,3.485A3.451,3.451,0,0,0,6.95,32.4c.763.36,1.763.36,3.759.36H24.291c2,0,2.994,0,3.758-.36a3.455,3.455,0,0,0,1.562-1.446C30,30.25,30,29.325,30,27.477V13.459c0-.2,0-.381,0-.538M19.286,3a5.373,5.373,0,0,1,1.139.09,3.738,3.738,0,0,1,1.033.4A7.5,7.5,0,0,1,22.746,4.55l5.581,5.168a7.252,7.252,0,0,1,1.146,1.191,3.181,3.181,0,0,1,.428.956,4.3,4.3,0,0,1,.1,1.056M19.286,3V7.63c0,1.852,0,2.778.389,3.485a3.45,3.45,0,0,0,1.56,1.446c.763.36,1.763.36,3.759.36h5" transform="translate(1 0)" fill="none" stroke="#e76936" stroke-linecap="round" stroke-linejoin="round" stroke-width="1.5"/><line x2="15.332" transform="translate(10 18.631)" fill="none" stroke="#272733" stroke-linecap="round" stroke-width="1.5"/><line x2="15.332" transform="translate(10 22.631)" fill="none" stroke="#272733" stroke-linecap="round" stroke-width="1.5"/></g></svg>