<svg xmlns="http://www.w3.org/2000/svg" width="32.884" height="31.113" viewBox="0 0 32.884 31.113"><g transform="translate(-66.226 -407.848)"><g transform="translate(66.226 407.045)"><g transform="translate(0 0.803)"><path d="M98.435,416.049V435.2H73.813V416.049Z" transform="translate(-69.709 -411.544)" fill="none"/><path d="M73.813,408.461v4.1H98.435v-4.1Z" transform="translate(-69.709 -407.695)" fill="none"/><path d="M94.9,451.454H71.645a4.111,4.111,0,0,0-4.1,4.1,4.133,4.133,0,0,0,4.1,4.1H94.9a4.11,4.11,0,0,0,4.1-4.1A4.1,4.1,0,0,0,94.9,451.454Z" transform="translate(-66.83 -429.205)" fill="none"/><path d="M91.516,412.565v-4.1h8.207v8.864H91.516Z" transform="translate(-77.837 -407.695)" fill="none"/><path d="M94.3,459.668H71.041a4.822,4.822,0,0,1-4.815-4.816,4.858,4.858,0,0,1,4.815-4.815c-.734-.274-.457.328-.457.711s-.877.214.457.711a3.537,3.537,0,0,0-2.408.985,3.394,3.394,0,0,0-.985,2.407A3.468,3.468,0,0,0,71.1,458.3H94.35a3.54,3.54,0,0,0,2.408-.985,3.4,3.4,0,0,0,.985-2.408,3.468,3.468,0,0,0-3.447-3.447c1.02-.036.558-.328.558-.711s.323-.755-.558-.711a4.822,4.822,0,0,1,4.815,4.815,4.857,4.857,0,0,1-4.815,4.816Z" transform="translate(-66.226 -428.555)" fill="#e76936"/><path d="M97.831,431.722H73.209a.724.724,0,0,1-.711-.711v-23.2a.724.724,0,0,1,.711-.711h9.575a.724.724,0,0,1,.711.711.679.679,0,0,1-.711.657H73.921v21.887H97.175V408.468H90.992a.711.711,0,0,1,0-1.423h6.84a.724.724,0,0,1,.711.711v23.255A.724.724,0,0,1,97.831,431.722Z" transform="translate(-69.106 -407.045)" fill="#e76936"/><path d="M74.577,459.254a2.079,2.079,0,1,1,2.079-2.08A2.078,2.078,0,0,1,74.577,459.254Zm0-2.736a.711.711,0,1,0,.711.711A.724.724,0,0,0,74.577,456.519Z" transform="translate(-69.106 -430.111)" fill="#e76936"/><path d="M94.809,459.254a2.079,2.079,0,1,1,2.079-2.08A2.079,2.079,0,0,1,94.809,459.254Zm0-2.736a.711.711,0,1,0,.711.711A.724.724,0,0,0,94.809,456.519Z" transform="translate(-78.394 -430.111)" fill="#e76936"/><path d="M115.041,459.254a2.079,2.079,0,1,1,2.079-2.08A2.079,2.079,0,0,1,115.041,459.254Zm0-2.736a.711.711,0,1,0,.711.711A.724.724,0,0,0,115.041,456.519Z" transform="translate(-87.682 -430.111)" fill="#e76936"/><path d="M82.232,416.055H73.209a.712.712,0,0,1,0-1.423h9.023a.724.724,0,0,1,.711.711A.812.812,0,0,1,82.232,416.055Z" transform="translate(-69.106 -410.528)" fill="#e76936"/><path d="M112.925,416.055h-6.84c-.383,0,.289-.329.289-.712s-.672-.711-.289-.711h6.84a.712.712,0,0,1,0,1.423Z" transform="translate(-84.199 -410.528)" fill="#e76936"/><path d="M99.119,417.433H90.912a.724.724,0,0,1-.711-.711v-8.865a.724.724,0,0,1,.711-.711h8.207a.724.724,0,0,1,.711.711v8.865A.724.724,0,0,1,99.119,417.433Zm-7.5-1.367h6.84v-7.551h-6.84Z" transform="translate(-77.233 -407.091)" fill="#272733"/><path d="M85.611,437.6H80.8a.712.712,0,0,1,0-1.423h4.815a.724.724,0,0,1,.711.711A.812.812,0,0,1,85.611,437.6Z" transform="translate(-72.589 -421.308)" fill="#272733"/><path d="M87.636,442.66H80.8a.711.711,0,0,1,0-1.423h6.84a.711.711,0,0,1,0,1.423Z" transform="translate(-72.589 -423.784)" fill="#272733"/></g></g></g></svg>