<svg xmlns="http://www.w3.org/2000/svg" width="20" height="20" viewBox="0 0 20 20"><g transform="translate(-2 -2)"><path d="M9.146,9.074A3,3,0,1,1,12,13v1m.05,3v.1h-.1V17ZM3,17.8V6.2a4.971,4.971,0,0,1,.218-2.108,2,2,0,0,1,.874-.874A4.971,4.971,0,0,1,6.2,3H17.8a4.964,4.964,0,0,1,2.107.218,2,2,0,0,1,.875.874A4.962,4.962,0,0,1,21,6.2V17.8a4.957,4.957,0,0,1-.218,2.1,2,2,0,0,1-.875.874A4.957,4.957,0,0,1,17.8,21H6.2a4.962,4.962,0,0,1-2.105-.218,2,2,0,0,1-.874-.874A4.967,4.967,0,0,1,3,17.8Z" fill="none" stroke="#fff" stroke-linecap="round" stroke-linejoin="round" stroke-width="2"/></g></svg>