<svg xmlns="http://www.w3.org/2000/svg" xmlns:xlink="http://www.w3.org/1999/xlink" width="184.401" height="42.328" viewBox="0 0 184.401 42.328">
  <defs>
    <clipPath id="clip-path">
      <path id="SVGID" d="M379.634,463.962H343a30.343,30.343,0,0,0,30.343,30.343h6.291a15.172,15.172,0,0,0,15.172-15.171h0A15.172,15.172,0,0,0,379.634,463.962Z" transform="translate(-343 -463.962)" fill="none"/>
    </clipPath>
    <clipPath id="clip-path-2">
      <path id="SVGID-2" data-name="SVGID" d="M394.806,479.134a15.172,15.172,0,0,0-15.172-15.172H343a30.236,30.236,0,0,0,8.609,21.164A30.236,30.236,0,0,0,343,506.29h36.634a15.172,15.172,0,0,0,15.172-15.171h0a15.114,15.114,0,0,0-1.231-5.992,15.112,15.112,0,0,0,1.231-5.992Z" transform="translate(-343 -463.962)" fill="none"/>
    </clipPath>
    <clipPath id="clip-path-3">
      <path id="SVGID-3" data-name="SVGID" d="M379.634,484.369h-6.291A30.343,30.343,0,0,0,343,514.712h36.634a15.172,15.172,0,0,0,15.172-15.172h0A15.172,15.172,0,0,0,379.634,484.369Z" transform="translate(-343 -484.369)" fill="none"/>
    </clipPath>
  </defs>
  <g id="Group_13129" data-name="Group 13129" transform="translate(-343 -463.962)">
    <g id="Group_13119" data-name="Group 13119" transform="translate(409.475 474.64)">
      <path id="Path_34891" data-name="Path 34891" d="M456.2,502.608V483.216h6.866a7.731,7.731,0,0,1,4.94,1.362,4.727,4.727,0,0,1,1.69,3.905v.367a4.688,4.688,0,0,1-.511,2.306,4.172,4.172,0,0,1-1.4,1.494,4.451,4.451,0,0,1,1.978,1.546,4.545,4.545,0,0,1,.721,2.674v.366a4.87,4.87,0,0,1-1.69,3.97,7.568,7.568,0,0,1-4.94,1.4ZM463.4,486.2h-3.564v5.189H463.4a2.5,2.5,0,0,0,1.966-.708,3.144,3.144,0,0,0,0-3.773A2.5,2.5,0,0,0,463.4,486.2Zm.707,8.072h-4.271v5.345h4.271a2.643,2.643,0,0,0,1.992-.706,2.757,2.757,0,0,0,.681-1.993,2.4,2.4,0,0,0-2.673-2.646Z" transform="translate(-456.195 -482.586)" fill="#272733"/>
      <path id="Path_34892" data-name="Path 34892" d="M486.165,502.035v-11.5h-1.991V487.8h5.634v14.23ZM487.5,486.1a1.867,1.867,0,0,1-2.1-1.991,2,2,0,0,1,.511-1.416,2.066,2.066,0,0,1,1.586-.55,2.028,2.028,0,0,1,1.559.55,2,2,0,0,1,.511,1.416,2.046,2.046,0,0,1-.511,1.428A2,2,0,0,1,487.5,486.1Z" transform="translate(-467.743 -482.144)" fill="#272733"/>
      <path id="Path_34893" data-name="Path 34893" d="M499.968,502.569V486.163h-1.782v-2.725h5.425v19.131Z" transform="translate(-473.526 -482.678)" fill="#272733"/>
      <path id="Path_34894" data-name="Path 34894" d="M513.578,502.569V486.163H511.8v-2.725h5.425v19.131Z" transform="translate(-479.144 -482.678)" fill="#272733"/>
      <path id="Path_34895" data-name="Path 34895" d="M528.127,505.884v-14.23h2.883v4.639q.576-4.821,5.084-4.822h.524v3.171h-1a3.474,3.474,0,0,0-3.852,3.826v7.416Z" transform="translate(-485.884 -485.994)" fill="#272733"/>
      <path id="Path_34896" data-name="Path 34896" d="M551.069,506.164a7.531,7.531,0,0,1-4.6-1.244,4.267,4.267,0,0,1-1.742-3.446H548a1.875,1.875,0,0,0,.8,1.35,3.725,3.725,0,0,0,2.319.589,3.989,3.989,0,0,0,2.07-.471,1.441,1.441,0,0,0,.786-1.284,1.282,1.282,0,0,0-.59-1.114,4.606,4.606,0,0,0-2-.563l-1.257-.132a6.6,6.6,0,0,1-3.682-1.362,3.687,3.687,0,0,1-1.271-2.935,4.055,4.055,0,0,1,.734-2.451,4.464,4.464,0,0,1,2.031-1.519,8.074,8.074,0,0,1,2.974-.511,7.121,7.121,0,0,1,4.246,1.166,4.086,4.086,0,0,1,1.7,3.368h-3.276a1.817,1.817,0,0,0-.747-1.258,3.11,3.11,0,0,0-1.952-.525,3.055,3.055,0,0,0-1.782.446,1.357,1.357,0,0,0-.629,1.153,1.225,1.225,0,0,0,.5,1.049,3.6,3.6,0,0,0,1.677.5l1.258.131a7.56,7.56,0,0,1,3.931,1.389,3.658,3.658,0,0,1,1.442,3.04,3.981,3.981,0,0,1-.773,2.45,5.029,5.029,0,0,1-2.162,1.612A8.528,8.528,0,0,1,551.069,506.164Z" transform="translate(-492.735 -485.828)" fill="#272733"/>
      <path id="Path_34897" data-name="Path 34897" d="M572.256,506.013l-3.878-14.23h3.538l2.909,11.242h.55l2.122-10.77h4.193l2.437,10.77h.55l2.595-11.242h3.3l-3.434,14.23h-5.214l-2.359-10.221-2.1,10.221Z" transform="translate(-502.497 -486.122)" fill="#272733"/>
      <path id="Path_34898" data-name="Path 34898" d="M610.8,502.035v-11.5h-1.991V487.8h5.634v14.23Zm1.337-15.933a1.867,1.867,0,0,1-2.1-1.991,2,2,0,0,1,.511-1.416,2.066,2.066,0,0,1,1.586-.55,2.029,2.029,0,0,1,1.559.55,2,2,0,0,1,.511,1.416,2.047,2.047,0,0,1-.511,1.428A2,2,0,0,1,612.135,486.1Z" transform="translate(-519.183 -482.144)" fill="#272733"/>
      <path id="Path_34899" data-name="Path 34899" d="M624.868,502.421V491.1h-1.782v-2.673h1.782v-.577a4.511,4.511,0,0,1,1.35-3.6,5.965,5.965,0,0,1,4-1.166H632v2.8h-2.044a1.686,1.686,0,0,0-1.244.432,1.649,1.649,0,0,0-.432,1.219v.891h3.957V491.1h-3.957v11.321Z" transform="translate(-525.077 -482.531)" fill="#272733"/>
      <path id="Path_34900" data-name="Path 34900" d="M647.883,503.378a8.864,8.864,0,0,1-3.249-.511,3.521,3.521,0,0,1-1.9-1.717,7.333,7.333,0,0,1-.616-3.3v-6.211h-2.254v-2.673h2.254l.026-4.01h3.407l-.026,4.01h4.4v2.673h-4.4v6.447a1.967,1.967,0,0,0,2.175,2.175h2.228v3.118Z" transform="translate(-532.002 -483.304)" fill="#272733"/>
    </g>
    <g id="Group_13128" data-name="Group 13128" transform="translate(343 463.962)">
      <g id="Group_13122" data-name="Group 13122">
        <g id="Group_13121" data-name="Group 13121" clip-path="url(#clip-path)">
          <g id="Group_13120" data-name="Group 13120" transform="translate(-17.781 -28.512)">
            <rect id="Rectangle_3268" data-name="Rectangle 3268" width="65.469" height="10.501" transform="translate(0 46.293) rotate(-45)" fill="#d2006b"/>
            <rect id="Rectangle_3269" data-name="Rectangle 3269" width="65.469" height="10.501" transform="translate(7.426 53.719) rotate(-45)" fill="#e42e45"/>
            <rect id="Rectangle_3270" data-name="Rectangle 3270" width="65.469" height="10.501" transform="translate(14.851 61.144) rotate(-45)" fill="#e76936"/>
            <rect id="Rectangle_3271" data-name="Rectangle 3271" width="65.469" height="10.501" transform="translate(22.277 68.57) rotate(-45)" fill="#ec9850"/>
            <rect id="Rectangle_3272" data-name="Rectangle 3272" width="65.469" height="10.501" transform="translate(29.702 75.996) rotate(-45)" fill="#e1e489"/>
          </g>
        </g>
      </g>
      <g id="Group_13124" data-name="Group 13124">
        <g id="Group_13123" data-name="Group 13123" clip-path="url(#clip-path-2)">
        </g>
      </g>
      <g id="Group_13127" data-name="Group 13127" transform="translate(0 11.984)">
        <g id="Group_13126" data-name="Group 13126" clip-path="url(#clip-path-3)">
          <g id="Group_13125" data-name="Group 13125" transform="translate(-17.781 -24.565)">
            <rect id="Rectangle_3273" data-name="Rectangle 3273" width="10.501" height="65.469" transform="translate(0 37.128) rotate(-45)" fill="#d2006b"/>
            <rect id="Rectangle_3274" data-name="Rectangle 3274" width="10.501" height="65.469" transform="translate(7.426 29.702) rotate(-45)" fill="#e42e45"/>
            <rect id="Rectangle_3275" data-name="Rectangle 3275" width="10.501" height="65.469" transform="translate(14.851 22.277) rotate(-45)" fill="#e76936"/>
            <rect id="Rectangle_3276" data-name="Rectangle 3276" width="10.501" height="65.469" transform="translate(22.277 14.851) rotate(-45)" fill="#ec9850"/>
            <rect id="Rectangle_3277" data-name="Rectangle 3277" width="10.501" height="65.469" transform="translate(29.702 7.426) rotate(-45)" fill="#e1e489"/>
          </g>
        </g>
      </g>
    </g>
  </g>
</svg>
