<svg xmlns="http://www.w3.org/2000/svg" width="31.299" height="30.905" viewBox="0 0 31.299 30.905"><g transform="translate(-536.446 -3347)"><g transform="translate(536.446 3347)"><path d="M-288.789,333.419h-5.961v-5.127a.762.762,0,0,0-.954-.707c-24.026,6.129-23.132,5.835-23.251,5.952a.647.647,0,0,0-.357.589V357.7a.775.775,0,0,0,.715.766h29.869a.776.776,0,0,0,.716-.766V334.185A.785.785,0,0,0-288.789,333.419Zm-6.372,23.574h-22.662V342.259h11.149a.785.785,0,0,0,.775-.766.785.785,0,0,0-.775-.766h-11.149v-5.835H-289.5v14.734h-11.208a.721.721,0,0,0-.715.707.776.776,0,0,0,.715.766h11.144v5.894Z" transform="translate(319.313 -327.561)" fill="#e76936"/><rect width="25.49" height="1.473" transform="translate(2.828 8.804)" fill="#272733"/><rect width="19.529" height="1.473" transform="translate(2.828 26.485)" fill="#272733"/></g><path d="M564.249,3353.911H547.52l16.73-4.544Z" transform="translate(-4.547 -0.972)" fill="#f3f3e0"/></g></svg>