<svg xmlns="http://www.w3.org/2000/svg" width="31.812" height="33.955" viewBox="0 0 31.812 33.955"><g transform="translate(17.75 -35.272)"><g transform="translate(-17 37)"><path d="M30.786,4.361,28.26,2,25.734,4.361,23.208,2,20.682,4.361,18.156,2,15.63,4.361,13.1,2,10.578,4.361,8.052,2V24.034H3v4.722a4.889,4.889,0,0,0,5.052,4.722H28.26a4.889,4.889,0,0,0,5.052-4.722V2ZM23.208,30.33H8.052a1.637,1.637,0,0,1-1.684-1.574V27.182h16.84Zm6.736-1.574a1.688,1.688,0,0,1-3.368,0V24.034H11.42V6.722H29.944Z" transform="translate(-3 -2)" fill="#e76936" stroke="#f3f3e0" stroke-width="1.5"/><rect width="11.658" height="3.497" rx="1.749" transform="translate(9.327 7.495)" fill="#272733" stroke="#f3f3e0" stroke-width="1.5"/><rect width="3.497" height="3.497" rx="1.749" transform="translate(21.484 7.495)" fill="#272733" stroke="#f3f3e0" stroke-width="1.5"/><rect width="11.658" height="3.497" rx="1.749" transform="translate(9.327 12.491)" fill="#272733" stroke="#f3f3e0" stroke-width="1.5"/><rect width="3.497" height="3.497" rx="1.749" transform="translate(21.484 12.491)" fill="#272733" stroke="#f3f3e0" stroke-width="1.5"/></g></g></svg>