<svg xmlns="http://www.w3.org/2000/svg" xmlns:xlink="http://www.w3.org/1999/xlink" width="31.186" height="33.485" viewBox="0 0 31.186 33.485"><defs><clipPath id="a"><rect width="9.345" height="10.92" fill="none"/></clipPath></defs><g transform="translate(-56.293 -256.443)"><g transform="translate(56.943 257.093)"><path d="M9.472,3.926H4.989V8.315H2V1H9.472ZM31.886,8.315V1H24.415V3.926H28.9V8.315ZM9.472,30.259H4.989V25.87H2v7.315H9.472ZM28.9,25.87v4.389H24.415v2.926h7.472V25.87ZM24.415,8.315H9.472V25.87H24.415ZM27.4,25.87A2.966,2.966,0,0,1,24.415,28.8H9.472A2.966,2.966,0,0,1,6.483,25.87V8.315A2.966,2.966,0,0,1,9.472,5.389H24.415A2.966,2.966,0,0,1,27.4,8.315Z" transform="translate(-2 -1)" fill="#e76936" stroke="#f3f3e0" stroke-width="1.3"/></g><g transform="translate(67.214 268.093)" clip-path="url(#a)"><g transform="translate(-66.5 -266.75)"><line x2="7" transform="translate(67.5 267.5)" fill="none" stroke="#272733" stroke-linecap="round" stroke-width="1.5"/></g><g transform="translate(-66.5 -262.75)"><line x2="7" transform="translate(67.5 267.5)" fill="none" stroke="#272733" stroke-linecap="round" stroke-width="1.5"/></g><g transform="translate(-66.5 -258.75)"><line x2="7" transform="translate(67.5 267.5)" fill="none" stroke="#272733" stroke-linecap="round" stroke-width="1.5"/></g></g></g></svg>