<svg xmlns="http://www.w3.org/2000/svg" width="20.305" height="22.484" viewBox="0 0 20.305 22.484">
  <g id="Interface_Settings_Future" data-name="Interface / Settings_Future" transform="translate(-2.34 -1.309)">
    <g id="Vector" transform="translate(3.34 2.31)">
      <path id="Path_41795" data-name="Path 41795" d="M14.184,22.143l5.771-3.332a4.667,4.667,0,0,0,1.147-.782,2.114,2.114,0,0,0,.44-.761,4.658,4.658,0,0,0,.1-1.381V9.214a4.657,4.657,0,0,0-.1-1.381,2.114,2.114,0,0,0-.44-.761,4.642,4.642,0,0,0-1.14-.777L14.183,2.958a4.67,4.67,0,0,0-1.251-.6,2.114,2.114,0,0,0-.879,0,4.672,4.672,0,0,0-1.252.6L5.029,6.291a4.668,4.668,0,0,0-1.147.781,2.114,2.114,0,0,0-.439.761,4.677,4.677,0,0,0-.1,1.386v6.663a4.676,4.676,0,0,0,.1,1.385,2.114,2.114,0,0,0,.439.761,4.671,4.671,0,0,0,1.148.782L10.8,22.143a4.676,4.676,0,0,0,1.252.6,2.117,2.117,0,0,0,.879,0A4.676,4.676,0,0,0,14.184,22.143Z" transform="translate(-3.34 -2.31)" fill="none" stroke="#fff" stroke-linecap="round" stroke-linejoin="round" stroke-width="2"/>
      <path id="Path_41796" data-name="Path 41796" d="M9,12.17A3.171,3.171,0,1,0,12.171,9,3.171,3.171,0,0,0,9,12.17Z" transform="translate(-3.018 -1.929)" fill="none" stroke="#fff" stroke-linecap="round" stroke-linejoin="round" stroke-width="2"/>
    </g>
  </g>
</svg>
