<svg xmlns="http://www.w3.org/2000/svg" width="32.216" height="25.368" viewBox="0 0 32.216 25.368">
  <g id="Group_13178" data-name="Group 13178" transform="translate(-52.937 -804.588)">
    <path id="Path_34967" data-name="Path 34967" d="M57.194,3996.459v15.746H81.056v-15.746Z" transform="translate(0 -3189)" fill="#e76936"/>
    <g id="Group_13177" data-name="Group 13177" transform="translate(-1124.164 283.588)">
      <path id="Path_34957" data-name="Path 34957" d="M1214.7,535.07a5.363,5.363,0,0,0-.548-1.973.366.366,0,0,0-.274-.219h-.438l.219-.383a.341.341,0,0,0,0-.328,5.857,5.857,0,0,0-1.424-1.424c-.11-.055-.22-.11-.329,0l-.383.219v-.438a.362.362,0,0,0-.22-.274,7.44,7.44,0,0,0-1.972-.548.391.391,0,0,0-.329.164l-.219.384-.22-.384a.388.388,0,0,0-.328-.164,5.328,5.328,0,0,0-1.973.548.539.539,0,0,0-.219.274v.438l-.384-.219a.343.343,0,0,0-.329,0,5.864,5.864,0,0,0-1.425,1.424c-.054.109-.109.219,0,.328l.22.383h-.439a.367.367,0,0,0-.274.219,7.488,7.488,0,0,0-.548,1.973.392.392,0,0,0,.165.329l.383.219-.548.274a.333.333,0,0,0-.164.329,5.366,5.366,0,0,0,.548,1.972.555.555,0,0,0,.274.219h.438l-.219.383a.342.342,0,0,0,0,.329,5.863,5.863,0,0,0,1.424,1.425c.11.055.22.11.329,0l.383-.219v.438a.363.363,0,0,0,.219.274,7.459,7.459,0,0,0,1.972.548h.055a.3.3,0,0,0,.274-.164l.219-.384.219.384a.332.332,0,0,0,.329.164,5.073,5.073,0,0,0,1.973-.548.545.545,0,0,0,.219-.274v-.438l.383.219a.344.344,0,0,0,.329,0,5.865,5.865,0,0,0,1.424-1.425c.055-.109.11-.219,0-.329l-.219-.383h.439a.367.367,0,0,0,.274-.219,7.472,7.472,0,0,0,.548-1.972.392.392,0,0,0-.165-.329l-.383-.219.383-.219C1214.644,535.344,1214.7,535.18,1214.7,535.07Zm-1.316.877.6.383a3.952,3.952,0,0,1-.384,1.37l-.768.055a.343.343,0,0,0-.274.493l.329.658a4.206,4.206,0,0,1-.987.986l-.657-.328a.343.343,0,0,0-.494.274l-.054.767a10.025,10.025,0,0,1-1.37.383l-.439-.6a.31.31,0,0,0-.548,0l-.438.6a4.288,4.288,0,0,1-1.37-.383l-.054-.767a.343.343,0,0,0-.494-.274l-.657.328a4.217,4.217,0,0,1-.986-.986l.329-.658a.352.352,0,0,0,0-.328.3.3,0,0,0-.274-.165l-.767-.055a10.026,10.026,0,0,1-.384-1.37l.6-.438a.311.311,0,0,0,0-.548l-.439-.384a4.317,4.317,0,0,1,.384-1.37l.767-.054a.343.343,0,0,0,.274-.494l-.329-.657a4.208,4.208,0,0,1,.987-.987l.657.329a.343.343,0,0,0,.493-.274l.055-.767a10.115,10.115,0,0,1,1.37-.383l.439.6a.31.31,0,0,0,.548,0l.438-.6a4.3,4.3,0,0,1,1.37.383l.054.767a.343.343,0,0,0,.494.274l.658-.329a4.22,4.22,0,0,1,.986.987l-.329.657a.344.344,0,0,0,.274.494l.767.054a10.122,10.122,0,0,1,.384,1.37l-.768.384a.3.3,0,0,0-.164.274A.474.474,0,0,0,1213.384,535.947Z" transform="translate(-11.573 -3.934)" fill="#272733"/>
      <path id="Path_34958" data-name="Path 34958" d="M1211.078,534.8a3.178,3.178,0,1,0,3.178,3.178A3.216,3.216,0,0,0,1211.078,534.8Zm0,5.589a2.466,2.466,0,1,1,2.466-2.466A2.49,2.49,0,0,1,1211.078,540.389Z" transform="translate(-13.924 -6.239)" fill="#272733"/>
      <path id="Path_34959" data-name="Path 34959" d="M1212.525,537.9a1.425,1.425,0,1,0,1.425,1.425A1.451,1.451,0,0,0,1212.525,537.9Zm0,2.192a.767.767,0,1,1,.768-.767A.784.784,0,0,1,1212.525,540.092Z" transform="translate(-15.371 -7.64)" fill="#272733"/>
      <path id="Path_34960" data-name="Path 34960" d="M1206.962,541.547a2.823,2.823,0,0,0,.986-2.136V523.85A2.864,2.864,0,0,0,1205.1,521H1181.32a2.864,2.864,0,0,0-2.849,2.85V539.41a2.738,2.738,0,0,0,.986,2.136,2.385,2.385,0,0,0-2.355,2.411,2.432,2.432,0,0,0,2.41,2.411h27.4a2.432,2.432,0,0,0,2.411-2.411A2.385,2.385,0,0,0,1206.962,541.547Zm-27.78-2.136V523.85a2.14,2.14,0,0,1,2.137-2.137H1205.1a2.141,2.141,0,0,1,2.137,2.137V539.41a2.14,2.14,0,0,1-2.137,2.136h-8.493a.353.353,0,0,0-.328.329v1.04h-6.137v-1.04a.353.353,0,0,0-.328-.329h-8.493A2.14,2.14,0,0,1,1179.182,539.41Zm22.245,2.849h3.069v.657h-3.069Zm-19.505,0h3.068v.657h-3.068Zm24.985,3.4h-27.4a1.7,1.7,0,1,1,0-3.4h1.7V543.3a.353.353,0,0,0,.328.328h3.781a.353.353,0,0,0,.328-.328v-1.042h3.781V543.3a.353.353,0,0,0,.328.328h6.849a.354.354,0,0,0,.329-.328v-1.042h3.78V543.3a.354.354,0,0,0,.329.328h3.78a.354.354,0,0,0,.329-.328v-1.042h1.7a1.707,1.707,0,0,1,1.7,1.7A1.627,1.627,0,0,1,1206.907,545.656Z" transform="translate(0)" fill="#272733"/>
      <path id="Path_34961" data-name="Path 34961" d="M1184.329,542h24a.354.354,0,0,0,.329-.329V525.729a.354.354,0,0,0-.329-.329h-24a.354.354,0,0,0-.329.329v15.945A.354.354,0,0,0,1184.329,542Zm.384-15.944H1208v15.231h-23.286Z" transform="translate(-3.119 -1.989)" fill="#272733"/>
      <path id="Path_34962" data-name="Path 34962" d="M1188.129,540.458h4.438a.329.329,0,1,0,0-.658h-4.438a.354.354,0,0,0-.328.329A.315.315,0,0,0,1188.129,540.458Z" transform="translate(-4.838 -8.499)" fill="#272733"/>
      <path id="Path_34963" data-name="Path 34963" d="M1194.65,542.3h-6.521a.329.329,0,0,0,0,.658h6.521a.329.329,0,0,0,0-.658Z" transform="translate(-4.838 -9.63)" fill="#272733"/>
      <path id="Path_34964" data-name="Path 34964" d="M1194.65,544.8h-6.521a.354.354,0,0,0-.328.329.315.315,0,0,0,.328.329h6.521a.329.329,0,0,0,0-.657Z" transform="translate(-4.838 -10.76)" fill="#272733"/>
      <path id="Path_34965" data-name="Path 34965" d="M1194.65,547.3h-6.521a.329.329,0,0,0,0,.657h6.521a.329.329,0,0,0,0-.657Z" transform="translate(-4.838 -11.89)" fill="#272733"/>
      <path id="Path_34966" data-name="Path 34966" d="M1194.65,549.8h-6.521a.354.354,0,0,0-.328.329.315.315,0,0,0,.328.329h6.521a.329.329,0,0,0,0-.657Z" transform="translate(-4.838 -13.02)" fill="#272733"/>
    </g>
  </g>
</svg>
